# Blender v2.80 (sub 43) OBJ File: 'CornerCube.blend'
# www.blender.org
mtllib CornerCube.mtl
o Cube
v 1.000000 1.000000 -1.000000
v 1.000000 -1.000000 -1.000000
v 1.000000 1.000000 1.000000
v 1.000000 -1.000000 1.000000
v -1.000000 1.000000 -1.000000
v -1.000000 -1.000000 -1.000000
v 0.992906 0.992906 1.000000
v 1.000000 0.982471 1.000000
v 0.700000 0.996453 -0.700000
v -0.003547 -0.003547 1.000000
v -0.501773 0.998227 -0.994208
v -1.000000 -1.000000 0.000000
v 1.000000 1.000000 0.000000
v -1.000000 0.000000 0.000000
v 1.000000 -1.000000 0.000000
v 0.995953 0.994680 0.005792
v -0.252660 -0.113108 0.250000
v -1.000000 -1.000000 1.000000
vt 0.375000 0.000000
vt 0.625000 0.000000
vt 0.562722 0.062500
vt 0.500443 0.125000
vt 0.375000 0.250000
vt 0.622809 0.250000
vt 0.624113 0.250887
vt 0.499557 0.375443
vt 0.375000 0.500000
vt 0.375000 0.625000
vt 0.500000 0.625000
vt 0.625000 0.750000
vt 0.375000 0.750000
vt 0.375000 0.875000
vt 0.625000 0.875000
vt 0.625000 1.000000
vt 0.375000 0.999082
vt 0.125000 0.625000
vt 0.375000 0.625000
vt 0.375000 0.750000
vt 0.372809 0.750000
vt 0.125000 0.750000
vt 0.625000 0.500000
vt 0.875000 0.500000
vt 0.875000 0.750000
vt 0.625000 0.750000
vt 0.531582 0.156250
vt 0.625000 0.125000
vt 0.625000 0.250000
vt 0.438165 0.187500
vt 0.375887 0.250000
vt 0.375000 0.250000
vt 0.375000 0.125000
vt 0.500443 0.250000
vt 0.625000 0.250000
vt 0.125000 0.500000
vt 0.375000 0.500000
vt 0.375944 0.500944
vt 0.625000 0.249056
vn -0.0011 0.9998 0.0181
vn 0.0000 0.0000 1.0000
vn -1.0000 0.0000 0.0000
vn 0.0000 -1.0000 0.0000
vn 1.0000 0.0000 0.0000
vn 0.0000 0.0000 -1.0000
vn -0.0746 0.7222 0.6877
vn -0.7444 0.6678 -0.0005
vn -0.6123 0.7471 0.2586
vn -0.6800 0.7314 0.0507
vn -0.0239 0.9997 0.0052
vn -0.7011 0.7011 0.1304
vn -0.1284 0.7012 0.7012
vn -0.1642 0.7191 0.6752
usemtl Material
s off
f 1/1/1 5/2/1 11/3/1 9/4/1
f 4/5/2 8/6/2 7/7/2 10/8/2 18/9/2
f 12/10/3 14/11/3 5/12/3 6/13/3
f 12/14/4 15/15/4 4/16/4 18/17/4
f 15/18/5 13/19/5 3/20/5 8/21/5 4/22/5
f 6/23/6 5/24/6 1/25/6 2/26/6
f 17/27/7 11/3/7 5/2/7 14/28/7
f 7/7/2 8/6/2 3/29/2
f 16/30/8 7/31/8 3/32/8 13/33/8
f 16/30/9 9/4/9 17/27/9
f 7/31/10 16/30/10 17/27/10 10/34/10
f 9/4/11 16/30/11 13/33/11 1/1/11
f 10/34/12 17/27/12 18/35/12
f 2/36/5 1/37/5 13/19/5 15/18/5
f 6/13/4 2/26/4 15/15/4 12/14/4
f 18/38/3 14/11/3 12/10/3
f 18/39/13 17/27/13 14/28/13
f 17/27/14 9/4/14 11/3/14
